<?xml version="1.0" encoding="UTF-8"?>
<!DOCTYPE svg PUBLIC "-//W3C//DTD SVG 1.1//EN" "http://www.w3.org/Graphics/SVG/1.1/DTD/svg11.dtd">
<svg xmlns="http://www.w3.org/2000/svg" version="1.1" width="150px" height="150px" style="shape-rendering:geometricPrecision; text-rendering:geometricPrecision; image-rendering:optimizeQuality; fill-rule:evenodd; clip-rule:evenodd" xmlns:xlink="http://www.w3.org/1999/xlink">
<g><path fill="#ffffff" stroke="#ffffff" stroke-width="0.5" d="M 67.03,0 C 72.34,0 77.65,0 82.96,0 C 83.12,0.31 83.36,0.51 83.71,0.6 C 85.33,0.57 86.93,0.73 88.51,1.07 C 108.27,5.12 124.13,15.25 136.11,31.47 C 140.74,38.08 144.28,45.24 146.7,52.94 C 147.42,55.45 148.1,57.95 148.76,60.47 C 149.15,62.4 149.35,64.36 149.35,66.33 C 149.47,66.66 149.68,66.89 150,67.03 C 150,72.34 150,77.66 150,82.97 C 149.69,83.13 149.49,83.39 149.39,83.72 C 149.4,85.66 149.18,87.57 148.73,89.45 C 148.11,92 147.43,94.54 146.7,97.06 C 138.35,121.81 121.81,138.35 97.06,146.7 C 94.54,147.41 92.02,148.1 89.5,148.78 C 87.58,149.22 85.63,149.42 83.66,149.35 C 83.33,149.46 83.1,149.68 82.97,150 C 77.66,150 72.35,150 67.04,150 C 66.85,149.72 66.59,149.52 66.27,149.4 C 64.66,149.37 63.05,149.25 61.45,149.02 C 58.62,148.25 55.78,147.47 52.94,146.7 C 28.19,138.35 11.65,121.81 3.3,97.06 C 2.52,94.2 1.75,91.34 0.97,88.49 C 0.75,86.9 0.62,85.3 0.57,83.7 C 0.45,83.4 0.27,83.15 0,82.96 C 0,77.65 0,72.34 0,67.03 C 0.32,66.87 0.53,66.62 0.63,66.27 C 0.61,64.32 0.8,62.4 1.22,60.49 C 1.9,57.97 2.59,55.46 3.3,52.94 C 11.65,28.19 28.19,11.65 52.94,3.3 C 57.29,1.93 61.73,1.02 66.26,0.56 C 66.59,0.47 66.85,0.28 67.03,0 Z M 11.66,77 C 11.6,78.51 11.7,80.01 11.94,81.51 C 12.6,85.39 13.48,89.22 14.57,93 C 18.7,103.62 26.39,109.86 37.66,111.71 C 45.53,112.81 52.82,111.25 59.53,107.04 C 62.59,105.11 65.06,102.61 66.96,99.53 C 68.8,96.03 70.29,92.39 71.42,88.61 C 69.98,87.42 68.48,87.34 66.92,88.38 C 65,92.1 62.96,95.77 60.77,99.37 C 58.42,102.19 55.5,104.22 52.03,105.45 C 47.63,107.04 43.11,107.53 38.47,106.92 C 33.88,106.13 29.78,104.27 26.18,101.34 C 21.61,96.62 18.83,91.01 17.83,84.51 C 17.73,82.83 17.67,81.15 17.66,79.47 C 17.6,78.54 17.95,77.86 18.73,77.44 C 36.68,77.61 54.63,77.62 72.56,77.47 C 72.34,76.83 72.17,76.18 72.06,75.51 C 72.3,68.8 71.04,62.4 68.26,56.31 C 64.28,49.14 58.35,44.38 50.49,42.03 C 43.81,40.14 37.31,40.65 31,43.56 C 22.85,47.32 17.34,53.47 14.48,61.99 C 12.92,66.88 11.98,71.89 11.66,77 Z M 74.28,110.67 C 76.06,110.53 77.84,110.32 79.6,110.05 C 80.78,109.68 81.78,109.03 82.6,108.11 C 89.37,99.13 96.11,90.13 102.82,81.1 C 103.2,80.4 103.76,79.95 104.51,79.74 C 105.08,79.81 105.49,80.1 105.75,80.63 C 112.36,89.73 118.97,98.82 125.6,107.89 C 126.62,109.05 127.88,109.8 129.37,110.16 C 131.13,110.35 132.88,110.44 134.63,110.42 C 126.36,99.52 118.12,88.58 109.9,77.6 C 108.49,75.88 108.44,74.12 109.74,72.32 C 116.76,63.34 123.7,54.3 130.57,45.2 C 132.13,43.56 131.77,42.72 129.47,42.68 C 127.4,42.59 125.66,43.29 124.23,44.79 C 117.95,52.84 111.8,60.99 105.77,69.24 C 104.92,70.23 104.07,70.24 103.22,69.25 C 96.94,61.19 90.79,53.04 84.76,44.79 C 82.62,42.89 80.15,42.32 77.36,43.08 C 76.96,43.11 76.67,43.28 76.48,43.59 C 77.1,44.1 77.68,44.67 78.2,45.29 C 85.4,54.74 92.63,64.17 99.87,73.58 C 100.31,74.09 100.51,74.67 100.46,75.33 C 91.87,87.21 83.14,98.99 74.28,110.67 Z M 17.78,71.01 C 18.37,62.15 22.25,55.12 29.4,49.91 C 34.91,46.42 40.87,45.27 47.29,46.47 C 55.59,48.26 61.25,53.13 64.26,61.08 C 65.62,64.39 66.35,67.83 66.46,71.39 C 66.31,72.46 65.67,72.9 64.54,72.7 C 49.53,72.66 34.51,72.66 19.49,72.7 C 18.28,72.79 17.71,72.23 17.78,71.01 Z"/></g>
<g><path fill="#060606" stroke="#060606" stroke-width="0.5" d="M 11.66,77 C 11.98,71.89 12.92,66.88 14.48,61.99 C 18.67,50.63 26.69,43.71 38.53,41.2 C 49.11,40.08 57.92,43.51 64.97,51.48 C 68.84,56.2 71.07,61.6 71.64,67.68 C 71.88,70.28 72.02,72.89 72.06,75.51 C 72.17,76.18 72.34,76.83 72.56,77.47 C 54.63,77.62 36.68,77.61 18.73,77.44 C 17.95,77.86 17.6,78.54 17.66,79.47 C 17.57,86.04 19.31,92.08 22.88,97.61 C 25.43,101.26 28.8,103.86 33,105.38 C 37.39,107.07 41.92,107.55 46.59,106.84 C 49.67,106.31 52.6,105.33 55.39,103.91 C 57.45,102.71 59.25,101.2 60.77,99.37 C 62.96,95.77 65,92.1 66.92,88.38 C 68.48,87.34 69.98,87.42 71.42,88.61 C 70.29,92.39 68.8,96.03 66.96,99.53 C 63.63,104.45 59.2,107.99 53.65,110.14 C 46.8,112.47 39.91,112.63 32.97,110.62 C 23.96,107.74 17.83,101.87 14.57,93 C 13.48,89.22 12.6,85.39 11.94,81.51 C 11.7,80.01 11.6,78.51 11.66,77 Z M 74.28,110.67 C 83.14,98.99 91.87,87.21 100.46,75.33 C 100.51,74.67 100.31,74.09 99.87,73.58 C 92.63,64.17 85.4,54.74 78.2,45.29 C 77.68,44.67 77.1,44.1 76.48,43.59 C 76.67,43.28 76.96,43.11 77.36,43.08 C 80.15,42.32 82.62,42.89 84.76,44.79 C 90.79,53.04 96.94,61.19 103.22,69.25 C 104.07,70.24 104.92,70.23 105.77,69.24 C 111.8,60.99 117.95,52.84 124.23,44.79 C 126.26,42.8 128.62,42.24 131.32,43.11 C 131.41,43.25 131.5,43.39 131.59,43.53 C 131.31,44.12 130.97,44.67 130.57,45.2 C 123.7,54.3 116.76,63.34 109.74,72.32 C 108.44,74.12 108.49,75.88 109.9,77.6 C 118.12,88.58 126.36,99.52 134.63,110.42 C 132.88,110.44 131.13,110.35 129.37,110.16 C 127.88,109.8 126.62,109.05 125.6,107.89 C 118.97,98.82 112.36,89.73 105.75,80.63 C 105.49,80.1 105.08,79.81 104.51,79.74 C 103.76,79.95 103.2,80.4 102.82,81.1 C 96.11,90.13 89.37,99.13 82.6,108.11 C 81.78,109.03 80.78,109.68 79.6,110.05 C 77.84,110.32 76.06,110.53 74.28,110.67 Z M 17.78,71.01 C 17.71,72.23 18.28,72.79 19.49,72.7 C 34.51,72.66 49.53,72.66 64.54,72.7 C 65.67,72.9 66.31,72.46 66.46,71.39 C 66.15,64.51 63.82,58.4 59.45,53.07 C 54.77,48.32 49.09,45.99 42.43,46.06 C 32.13,46.5 24.78,51.38 20.36,60.7 C 18.97,64 18.11,67.44 17.78,71.01 Z M 103.94,75.04 C 103.81,76.16 104.28,76.79 105.36,76.92 C 105.26,75.67 105.23,74.4 105.29,73.13 C 104.28,73.32 103.83,73.96 103.94,75.04 Z M 14.94,75.01 C 15.95,76.39 16.43,76.18 16.37,74.38 C 16.23,74.24 16.08,74.1 15.93,73.96 C 15.53,74.24 15.2,74.59 14.94,75.01 Z"/></g>
<g><path fill="#000000" d="M 103.94,75.04 C 103.83,73.96 104.28,73.32 105.29,73.13 C 105.23,74.4 105.26,75.67 105.36,76.92 C 104.28,76.79 103.81,76.16 103.94,75.04 Z M 14.94,75.01 C 15.96,73.58 16.43,73.77 16.36,75.56 C 16.2,75.72 16.05,75.89 15.89,76.05 C 15.46,75.81 15.14,75.46 14.94,75.01 Z"/></g>
</svg>
